<svg xmlns="http://www.w3.org/2000/svg" xmlns:xlink="http://www.w3.org/1999/xlink" viewBox="0 0 900 500"><defs><style>.cls-1,.cls-10,.cls-11,.cls-12,.cls-15,.cls-16,.cls-18,.cls-19,.cls-27,.cls-29,.cls-3,.cls-31,.cls-32,.cls-35,.cls-36,.cls-37,.cls-39,.cls-4,.cls-40,.cls-41,.cls-42,.cls-43,.cls-44,.cls-45,.cls-47,.cls-48,.cls-5,.cls-6{fill:none;}.cls-2{clip-path:url(#clip-path);}.cls-10,.cls-12,.cls-3,.cls-35,.cls-36,.cls-37,.cls-4,.cls-5{stroke:#cdd0c4;}.cls-10,.cls-11,.cls-12,.cls-15,.cls-16,.cls-18,.cls-19,.cls-27,.cls-29,.cls-3,.cls-31,.cls-32,.cls-35,.cls-36,.cls-37,.cls-39,.cls-4,.cls-40,.cls-41,.cls-42,.cls-43,.cls-44,.cls-45,.cls-47,.cls-48,.cls-5,.cls-6{stroke-miterlimit:10;}.cls-3{stroke-dasharray:4;}.cls-4{stroke-dasharray:3.94 3.94;}.cls-11,.cls-27,.cls-41,.cls-6{stroke:#f6a915;}.cls-6{stroke-width:1.31px;}.cls-7{fill:#cdd0c4;}.cls-8{fill:#f6a915;}.cls-9{fill:#4b53e4;}.cls-10{stroke-width:0.72px;}.cls-11{stroke-width:0.88px;}.cls-12{stroke-width:0.49px;}.cls-13{fill:#eeeeed;}.cls-14{fill:#30b47a;}.cls-15{stroke:#0c8563;stroke-width:2px;}.cls-16,.cls-19,.cls-31,.cls-32,.cls-39,.cls-44,.cls-47,.cls-48{stroke:#fff;}.cls-16,.cls-48{stroke-width:4.67px;}.cls-17{fill:#ff5940;}.cls-18{stroke:#d15036;stroke-width:1.76px;}.cls-19{stroke-width:3.52px;}.cls-20{fill:#221660;}.cls-21{fill:#f68e15;}.cls-22{fill:#fe9da7;}.cls-23{fill:#f68;}.cls-24{fill:#fcde98;}.cls-25{fill:#3a4b73;}.cls-26{fill:#f65015;}.cls-27{stroke-width:0.83px;}.cls-28,.cls-30{fill:#fff;}.cls-28{opacity:0.5;}.cls-29{stroke:#f68;}.cls-31{stroke-width:0.8px;}.cls-33{fill:#fff9e1;}.cls-34{fill:#d9c693;}.cls-35{stroke-width:1.82px;}.cls-36{stroke-width:1.36px;}.cls-37{stroke-width:1.46px;}.cls-38{opacity:0.15;}.cls-39{stroke-width:2.21px;}.cls-40{stroke:#221660;}.cls-42{stroke:#4b53e4;}.cls-43{stroke:#f67215;stroke-width:1.4px;}.cls-44{stroke-width:1.86px;}.cls-45{stroke:#efddc9;stroke-width:0.91px;}.cls-46,.cls-48{opacity:0.14;}.cls-47{stroke-width:3.52px;}</style><clipPath id="clip-path"><polygon class="cls-1" points="899.64 500 0 500 0 0 900 0 899.64 500"/></clipPath></defs><g id="OBJECTS"><g class="cls-2"><path class="cls-3" d="M705.28,120.65S566.24,91.43,538,238.53c-17.21,89.72,61.71,144.57,110.83,148.11,181.36,13.1,176.51-183.2,176.51-183.2"/><path class="cls-4" d="M500.31,502.06c-51.31-27-61.14-100.66-61.14-100.66l-1-18.09"/><line class="cls-5" x1="438.02" y1="381.34" x2="437.91" y2="379.34"/><rect class="cls-6" x="384.71" y="324.18" width="86.83" height="57.51" rx="4.68"/><rect class="cls-7" x="438.35" y="338.98" width="27.68" height="22.34" rx="2.81"/><path class="cls-8" d="M471.27,328.7a4.69,4.69,0,0,0-4.68-4.69H389.12a4.68,4.68,0,0,0-4.68,4.69v.79l86.84.46Z"/><polygon class="cls-9" points="465.15 374.15 463.14 387.83 468.15 383.27 475.21 383.8 465.15 374.15"/><path class="cls-10" d="M421.18,341.54h11.11"/><path class="cls-10" d="M391.15,341.54H419"/><path class="cls-10" d="M410.07,346.18h22.22"/><path class="cls-10" d="M391.15,346.18h16.53"/><path class="cls-10" d="M427.42,350.82h4.87"/><path class="cls-10" d="M391.15,350.82h34.08"/><path class="cls-10" d="M410.37,355.22h21.92"/><path class="cls-10" d="M391.15,355.22h17.12"/><path class="cls-10" d="M417.81,360.1h14.48"/><path class="cls-10" d="M391.15,360.1h24.32"/><rect class="cls-9" x="391.14" y="365.89" width="27.93" height="5.95" rx="2.98"/><rect class="cls-11" x="855.52" y="68.17" width="58.73" height="38.9" rx="3.17"/><rect class="cls-7" x="891.8" y="78.18" width="18.72" height="15.11" rx="1.9"/><path class="cls-8" d="M914.06,71.23a3.17,3.17,0,0,0-3.17-3.17H858.5a3.17,3.17,0,0,0-3.17,3.17v.53l58.74.31Z"/><path class="cls-12" d="M880.18,79.91h7.52"/><path class="cls-12" d="M859.87,79.91h18.81"/><path class="cls-12" d="M872.67,83.05h15"/><path class="cls-12" d="M859.87,83.05h11.18"/><path class="cls-12" d="M884.4,86.19h3.3"/><path class="cls-12" d="M859.87,86.19h23"/><path class="cls-12" d="M872.87,89.17H887.7"/><path class="cls-12" d="M859.87,89.17h11.58"/><path class="cls-12" d="M877.9,92.47h9.8"/><path class="cls-12" d="M859.87,92.47h16.45"/><rect class="cls-9" x="859.86" y="96.38" width="18.89" height="4.03" rx="2.01"/><path class="cls-9" d="M575,224.06c3.57-3.57,10.72-16.43,2.88-17.86s-29.24,35.66-36.73,30.31,31.73-66.68,15-74.88c-10.2-5-20.9,2.72-31.05,9.66-11.38,7.78-21.64,14.74-21.39,4.65.12-5,32.11-37,4.65-56.29C493.07,109,465.2,125,438.52,140.59c-21.44,12.49-44.06,28.41-66.07,14.8C339.86,135.23,348,3.43,253.25-.38H-3.5V428.07s19.44,78.56,128.78,67.22,196.9-133.09,210.9-143c20.93-14.88,39.49-8.5,29.77,12.56s5.39,39,34.89,19.54c53.5-35.35,95-185.07,135.88-195.2,9.43-2.33-26.82,65-2.35,63.81,11-.52,36-36.71,38.57-38.56,9.44-6.84.73,9.15.73,9.15Z"/><rect class="cls-13" x="744.35" y="32.71" width="115.17" height="12.67" rx="6.34"/><circle class="cls-14" cx="813.05" cy="181.66" r="30.18"/><circle class="cls-15" cx="815.58" cy="178.28" r="30.18"/><polyline class="cls-16" points="799.81 184.22 807.19 191.6 828.99 169.8"/><circle class="cls-17" cx="575.31" cy="356.98" r="26.55"/><circle class="cls-18" cx="577.54" cy="354.01" r="26.55"/><circle class="cls-19" cx="574.72" cy="349.99" r="9.8"/><path class="cls-19" d="M581.55,358.14l8.12,8.13Z"/><path class="cls-20" d="M678.39,199a17.76,17.76,0,0,0,1.19-5.89.75.75,0,0,0-1.5,0A16.7,16.7,0,0,1,677,198.6a.75.75,0,0,0,.52.92.76.76,0,0,0,.92-.52Z"/><path class="cls-9" d="M780.92,317.15,824.3,384.8s26.35-49.26,30.25-54.34,42,16.06,42,16.06-21.75,44-32.67,69.29c-8.51,19.72-57.55,16.24-57.55,16.24l-37.1-54.29Z"/><path class="cls-20" d="M896.55,346.52s-38.09-21.14-42-16.06c0,0,6.64-14.42,9.28-15.67,7.28-3.47,62.23,26.46,60.62,27.67-3.33,2.5-25.91-1.85-25.91-1.85Z"/><path class="cls-9" d="M704,369.31c7,13.92,54.64,94.38,74.56,106.49s72.64-11.33,105.45-23L868.43,409l-61.71,16-30.85-44.13s19.08-45.47,5-63.74Z"/><polygon class="cls-20" points="713.39 390.01 789.37 348.57 791.93 333.29 713.39 390.01"/><path class="cls-8" d="M719,230.5c5.08-2.45,53,6.85,53,6.85l-5.24,36.92-25-5.23Z"/><path class="cls-21" d="M766.79,274.27l-20.87-4.54-17-28.08a44.26,44.26,0,0,1,13.23,7c.34.27,12.78,8.05,13.12,8.33,5.46,4.58,13.58,1.77,13.58,1.77Z"/><path class="cls-22" d="M560.19,255.13c-6.2-4.61-10.81-13.65-10.63-19.14s3.37-11.52,6.56-12.58,3.37,2.83,2.48,5.67-.89,9-.89,9Z"/><path class="cls-23" d="M558.6,229.08c-.89,2.83-.89,9-.89,9l2.48,17a50.14,50.14,0,0,1-6.68-15.83C551.84,230.93,558.6,229.08,558.6,229.08Z"/><path class="cls-22" d="M642.71,199.69c-5,9.41,3.58,36.74,4.27,38.44,1.55,3.79,4.28,14.34,24.41,6.1l4.55,8.77s24.12-10.29,25.95-13.95c0,0-4.57-7.91-9.74-19.26-4.81-10.6-9.92-24.6-18.32-26.81C656.44,188.4,647.29,191.15,642.71,199.69Z"/><path class="cls-20" d="M633.87,210.67s4.57,10.68,23.49,1.22c0,0,2.74,5.19,8.23,5.49l.92,6.41,4.58-1.83s1.83,18,5.18,19.52,19.83-5.79,22-9.15c.8-1.26-1.65-14.39-2.14-20.74-.81-10.6-.63-21-11.13-15.73,0,0-3.62-8.07-7.28-10.21s-7.52,1.83-7.52,1.83-3.35-9.45-13.12-8.23-11.9,7.32-11.9,7.32-14.64-11.29-25.62,3.36c-8.36,11.14,3.05,23.18,9.15,22Z"/><path class="cls-22" d="M574.37,243.78c-4.08.71-8-3.36-9-5.13s.41-3.82,5.67-10.28c3.9-4.79-.17-7.09-4.6-5,0,0-9.4,4.43-11.34,11.16-2.6,9,6.37,23,6.37,23s8,25.69,25.88,47.49c14.17,17.26,26.75,14.53,34,14.35S651,309.52,651,309.52l-21.83-31-15.23,6.22c-12.76-11-26.76-36.51-26.76-36.51Z"/><path class="cls-23" d="M571,228.37c-5.26,6.46-6.73,8.5-5.67,10.28s5,5.84,9,5.13l-6.7,2.26-1.91,4.18s-4.35-7.48-3.3-12.35S571,228.37,571,228.37Z"/><path class="cls-23" d="M629.12,278.5l21.83,31s-8.13,3.54-16.17,6.4c-1.75.62,4.35-2.36,3.51-7.82C636.59,297,629.12,278.5,629.12,278.5Z"/><path class="cls-22" d="M772,237.9c-.34.12,17.91,4.79,22.77,2.46,6.8-3.27,16.53-26.54,16.53-26.54s-3.78-12.8-1.16-14,4.94,5.52,4.94,5.52,4.07-21.22,6.69-20.93,3.59,4.6,3.64,10.74c0,0,.76,2.16,1.34-.16s1.88-10.14,4.5-11,4.29,7.69,2.83,13.51c0,0,5.05-10,6.51-9.67s3.27,6.48.08,13.45c0,0,4.24-5.47,5.7-4.6s.47,9.68-7.15,21.07c0,0-3.07,37.93-29.81,53.33-9.31,5.37-20.88,6.1-31.14,4.43a111,111,0,0,1-11.44-2.43Z"/><path class="cls-22" d="M669.55,225.08c2.23-6.7,4.07-7.69,7.26-3.86s-.56,11.52-5,11.2S669.55,225.08,669.55,225.08Z"/><path class="cls-20" d="M868.43,409s15.1-5.84,18.39-4.38,29.12,62.22,27.65,70.62-24.56-24.81-24.56-24.81l-5.86,2.32Z"/><path class="cls-8" d="M627.83,274.88c.61,5.49,20.38,35.55,23.12,34.64,1.83-.61,14.95-7.32,14.95-7.32-.21.07,23.66,54.49,45.12,89,0,0,66-41.71,89.18-64.29,0,0-73.28-92.16-81.22-96.43l-62.23,30.81Z"/><path class="cls-20" d="M783,360.77a80,80,0,0,1-7.5,19.93.81.81,0,0,0,0,.81l10.27,14.79L802.26,420l3.77,5.43a.81.81,0,0,0,.9.37l19.84-5.27,31.36-8.32,7.27-1.93a.8.8,0,0,0-.43-1.55L845.13,414l-31.36,8.32-7.26,1.93.9.37-10.26-14.8-16.45-23.7-3.77-5.42v.81a81.59,81.59,0,0,0,7.66-20.31c.23-1-1.32-1.44-1.55-.43Z"/><path class="cls-20" d="M792.72,404.85,776.24,381.1a78.21,78.21,0,0,0,4.85-10.82C782.18,367.24,792.72,404.85,792.72,404.85Z"/><path class="cls-23" d="M778.23,275.54a111,111,0,0,1-11.44-2.43L772,237.9s.63,24,3.12,29.45C776.87,271.31,778.23,275.54,778.23,275.54Z"/><path class="cls-8" d="M564.78,252.81l1-3.73,1.09-4.33L571,228.37a12.38,12.38,0,0,1,4.07-5.42,17.52,17.52,0,0,1,1.52-1.07,10.78,10.78,0,0,1,.89,1.66,14.85,14.85,0,0,1,1.28,6.62c-.12,2.74-1.52,10.37-2.71,16.52-.32,1.65-.63,3.19-.89,4.5-.5,2.5-.85,4.17-.85,4.17a10.6,10.6,0,0,1-5.51,1.06C566.26,256,564.78,252.81,564.78,252.81Z"/><path class="cls-24" d="M578.76,230.16a14.85,14.85,0,0,0-1.28-6.62,10.78,10.78,0,0,0-.89-1.66,17.52,17.52,0,0,0-1.52,1.07,12.38,12.38,0,0,0-4.07,5.42l2.37-1.58.77,1.33L576,227l1.19,2.45,1.05-1.19Z"/><path d="M577.48,223.54a10.78,10.78,0,0,0-.89-1.66,17.52,17.52,0,0,0-1.52,1.07Z"/><path class="cls-25" d="M575.16,251.18c.26-1.31.57-2.85.89-4.5a9,9,0,0,0-9.16-1.93c-.37,1.44-.73,2.88-1.09,4.33Z"/><path class="cls-26" d="M575.16,251.18c-.5,2.5-.85,4.17-.85,4.17a10.6,10.6,0,0,1-5.51,1.06c-2.54-.42-4-3.6-4-3.6l1-3.73s1.62-1.62,5-.93C574.29,248.88,575.16,251.18,575.16,251.18Z"/><path class="cls-22" d="M587.13,248.21c2-6.37-2.13-11-5.32-16.12s-5.14-4.61-6.55-3.54c-1.22.91,2,11,.35,14.27a13.19,13.19,0,0,0-1.68,5.52c-.15,3.77.25,8.65,3.18,9.41,1,.26.92-9.79,1.95-9.67A42.9,42.9,0,0,0,587.13,248.21Z"/><path class="cls-27" d="M405.41,513.81H394.07a20,20,0,0,1-20-20h0a20,20,0,0,1,20-20h2.21a20,20,0,0,1,20,20v18.86a.83.83,0,0,1-.72.9Z"/><polygon class="cls-23" points="528.4 471.87 527.31 479.31 533.88 477.13 528.4 471.87"/><polygon class="cls-23" points="732.58 179.06 731.15 188.81 739.75 185.94 732.58 179.06"/><polygon class="cls-23" points="9.02 241.4 7.59 251.16 16.2 248.29 9.02 241.4"/><polygon class="cls-23" points="422.59 299.47 421.16 309.23 429.77 306.36 422.59 299.47"/><circle class="cls-8" cx="386.14" cy="142.08" r="3.07"/><circle class="cls-28" cx="324.2" cy="115.18" r="1.91"/><circle class="cls-8" cx="515.24" cy="385.88" r="2.88"/><circle class="cls-8" cx="146.11" cy="452.1" r="2.88"/><polyline class="cls-29" points="871.57 -2.96 880.13 -1.68 878.18 4.61 885.69 5.91 884.59 12.8 891.89 13.69 890.35 19.75"/><rect class="cls-9" x="502.9" y="289.06" width="9.34" height="9.34" transform="translate(-78.86 293.14) rotate(-30)"/><rect class="cls-30" x="474.5" y="144.53" width="5.53" height="5.53" transform="translate(-9.71 258.37) rotate(-30)"/><polyline class="cls-31" points="466.51 210.03 470.41 212.07 468.43 214.76 471.82 216.63 470.15 219.76 473.51 221.4 471.76 224.06"/><polyline class="cls-32" points="-2.05 21.89 3.38 22.66 2.17 26.64 6.93 27.43 6.26 31.8 10.89 32.33 9.94 36.18"/><path class="cls-33" d="M695,494.09,753.3,463.7s9.74,2.89,14.36,10.67,4.09,20.42,7.66,23.47c7.15,6.11,22.51,4.88,25.65,26.8l-54.69,34s-4.48-7.88-8-9.6c-5.59-2.77-15.46-4.55-21.55-12-4.89-6-3.87-20-8-29.17C704.45,498.51,695,494.09,695,494.09Z"/><path class="cls-34" d="M715.13,499.82c5-2.16,9.74-5.32,14.41-8.15,6-3.64,11.94-7.37,18-10.93a76.4,76.4,0,0,1,6.81-3.76c1.39-.64.18-2.69-1.2-2.05-5,2.31-9.66,5.44-14.34,8.3-6,3.65-11.94,7.37-18,10.89a65.23,65.23,0,0,1-6.86,3.65c-1.4.6-.19,2.65,1.2,2.05Z"/><path class="cls-34" d="M719.06,508.67c5-2.17,9.74-5.32,14.41-8.16,6-3.64,11.94-7.36,18-10.93,2.23-1.31,4.46-2.66,6.81-3.75,1.39-.64.18-2.69-1.2-2.05-5,2.31-9.66,5.43-14.34,8.29-6,3.66-11.94,7.38-18,10.89a64.31,64.31,0,0,1-6.85,3.66c-1.41.6-.2,2.65,1.19,2.05Z"/><path class="cls-34" d="M723,519.48c5-2.17,9.74-5.32,14.41-8.16,6-3.64,11.94-7.36,18-10.93,2.23-1.31,4.46-2.66,6.81-3.75,1.39-.64.18-2.69-1.2-2.05-5,2.31-9.66,5.43-14.34,8.29-6,3.66-11.94,7.38-18,10.89a64.31,64.31,0,0,1-6.85,3.66c-1.4.6-.2,2.65,1.19,2.05Z"/><path class="cls-5" d="M617.5,466.65c-2.4-.87-4-2.91-3.29-5.38l.72-2.7L621,436.35a3.07,3.07,0,0,1,1-1.58l3.78-3.14,1-.8a.89.89,0,0,1,1.4.36l.45,1.19,1.53,4.07a3.07,3.07,0,0,1,.1,1.87l-5.82,22.29-.78,3.05a5.22,5.22,0,0,1-1.31,2.42c-1,1-2.24,1.33-4.38.72Z"/><path class="cls-7" d="M628.6,432.38l-.45-1.19a.89.89,0,0,0-1.4-.36l-1,.8a1.15,1.15,0,0,0,1,.78A5.27,5.27,0,0,0,628.6,432.38Z"/><path class="cls-5" d="M624.41,460.61l-.81,3.19a5,5,0,0,1-1.42,2.42c-1,.89-2.2,1.16-4.24.58l-.44-.15c-2.4-.87-4-2.91-3.29-5.38l.72-2.7a9,9,0,0,1,4.19-.85C623.28,458.33,624.41,460.61,624.41,460.61Z"/><path class="cls-5" d="M615.42,462.69c.93-.75,5-1.21,6.72,2"/><polyline class="cls-5" points="622.02 436.74 623.58 437.6 625.75 437.17 627.56 438.3 629.21 437.69"/><path class="cls-5" d="M616.87,454.52a6.84,6.84,0,0,1,8.22,2.42"/><line class="cls-5" x1="623.79" y1="453.13" x2="627.56" y2="438.3"/><line class="cls-5" x1="619.38" y1="454.17" x2="623.15" y2="439.33"/><path class="cls-29" d="M923.78,452.16c2.08,2.7,2.38,6.11-.13,8.41l-2.74,2.52-29.65,27.79a4.13,4.13,0,0,1-2.27,1.06l-6.48.84-1.66.22a1.19,1.19,0,0,1-1.31-1.41l.35-1.66,1.17-5.67a4.23,4.23,0,0,1,1.21-2.18l29.44-28,3-2.87a7,7,0,0,1,3.2-1.79c1.82-.43,3.47.1,5.44,2.31Z"/><path class="cls-23" d="M879.89,489.93l-.35,1.66a1.19,1.19,0,0,0,1.31,1.41l1.66-.22a1.56,1.56,0,0,0-.57-1.59A6.93,6.93,0,0,0,879.89,489.93Z"/><polyline class="cls-29" points="890.38 489.71 889.25 487.63 886.5 486.58 885.26 484.02 882.98 483.53"/><line class="cls-29" x1="907.08" y1="462.9" x2="885.26" y2="484.02"/><line class="cls-29" x1="912.78" y1="464.87" x2="890.96" y2="485.99"/><path class="cls-35" d="M951.31,224.15H894.37l-8.66,5.55-.57-5.55a4,4,0,0,1-4-4V205.31a4,4,0,0,1,4-4h66.17a4,4,0,0,1,4,4v14.84A4,4,0,0,1,951.31,224.15Z"/><line class="cls-35" x1="890.99" y1="209.94" x2="946.5" y2="209.94"/><line class="cls-35" x1="890.99" y1="216.05" x2="946.5" y2="216.05"/><path class="cls-36" d="M528.73,108.74H543l4.79,3.07.32-3.07a2.21,2.21,0,0,0,2.21-2.21v-8.2a2.21,2.21,0,0,0-2.21-2.22H528.73a2.21,2.21,0,0,0-2.21,2.22v8.2A2.21,2.21,0,0,0,528.73,108.74Z"/><line class="cls-36" x1="544.82" y1="100.88" x2="531.39" y2="100.88"/><line class="cls-36" x1="544.82" y1="104.26" x2="531.39" y2="104.26"/><rect class="cls-37" x="260.2" y="480.74" width="46.19" height="30.26" rx="4.81"/><path class="cls-14" d="M266.22,505.48s9.33-14.33,10.63-14.33,12.59,14.54,12.59,14.54Z"/><path class="cls-14" d="M283.92,495.92l7.26,9.12h8.73v-5.21s-8.18-7.71-10.38-9.12C288.84,491.43,283.92,496.33,283.92,495.92Z"/><circle class="cls-8" cx="271.02" cy="488.21" r="2.44"/><g class="cls-38"><rect class="cls-39" x="11.7" y="447.5" width="51.13" height="33.5" rx="5.33"/><path class="cls-39" d="M19.43,474.89A.58.58,0,0,1,19,474c2.2-3.35,10-15,11.18-15,1.44,0,13.94,16.09,13.94,16.09Z"/><path class="cls-39" d="M36.22,465l8,10.1L55,474.9a.59.59,0,0,0,.57-.58l.06-5.4a.59.59,0,0,0-.21-.46c-1.38-1.1-9-7.2-12-9.39a1.11,1.11,0,0,0-1.44.12C40.28,460.93,36.22,465,36.22,465Z"/><circle class="cls-39" cx="23.68" cy="455.77" r="2.7"/></g><circle class="cls-40" cx="832.49" cy="329" r="2.08"/><circle class="cls-40" cx="657.84" cy="333.43" r="2.08"/><circle class="cls-40" cx="647.51" cy="498.74" r="2.08"/><circle class="cls-40" cx="533.65" cy="125.96" r="2.08"/><line class="cls-32" x1="15.16" y1="413.23" x2="18.59" y2="423.02"/><line class="cls-32" x1="12.49" y1="420.23" x2="21.4" y2="416.5"/><line class="cls-32" x1="319.88" y1="49.61" x2="323.3" y2="59.41"/><line class="cls-32" x1="317.2" y1="56.61" x2="326.12" y2="52.88"/><line class="cls-32" x1="391.02" y1="362.1" x2="394.45" y2="371.9"/><line class="cls-32" x1="388.34" y1="369.1" x2="397.26" y2="365.37"/><line class="cls-41" x1="766.18" y1="116.45" x2="769.61" y2="126.24"/><line class="cls-41" x1="763.51" y1="123.44" x2="772.42" y2="119.72"/><line class="cls-41" x1="704.99" y1="439.9" x2="708.42" y2="449.69"/><line class="cls-41" x1="702.31" y1="446.89" x2="711.23" y2="443.17"/><line class="cls-41" x1="881.15" y1="274.74" x2="884.58" y2="284.53"/><line class="cls-41" x1="878.48" y1="281.74" x2="887.39" y2="278.01"/><line class="cls-42" x1="330.41" y1="441.45" x2="333.84" y2="451.25"/><line class="cls-42" x1="327.73" y1="448.45" x2="336.65" y2="444.72"/><circle class="cls-8" cx="633.44" cy="126.48" r="23.19"/><circle class="cls-43" cx="635.12" cy="123.48" r="23.19"/><path class="cls-44" d="M645.23,122.68c0,4.23-1.87,7.77-5.35,9.64-1.57.85-3,7.29-3,7.29l-6.79-.13s-1.11-6.85-2.3-7.68a11.1,11.1,0,1,1,17.44-9.12Z"/><polyline class="cls-44" points="631.04 131.74 629.28 121.69 633.62 124.14 637.83 121.69 636.2 131.74"/><line class="cls-44" x1="627.79" y1="131.8" x2="639.88" y2="131.8"/><line class="cls-44" x1="629.82" y1="135.54" x2="637.83" y2="135.54"/><path class="cls-20" d="M634.5,159.76a.38.38,0,0,0,0-.75.38.38,0,0,0,0,.75Z"/><path class="cls-45" d="M402.65,493.24a7.8,7.8,0,0,1-3.66,7.37c-1.14.68-2,5.54-2,5.54l-5.06.13s-1.07-5.07-2-5.65a8.29,8.29,0,1,1,12.69-7.39Z"/><polyline class="cls-45" points="391.65 500.45 390.9 492.87 394.23 494.54 397.28 492.57 397.31 500.53"/><g class="cls-46"><circle class="cls-47" cx="278.93" cy="391.58" r="9.8"/><path class="cls-47" d="M285.76,399.73l8.13,8.13Z"/></g><polyline class="cls-48" points="-6.99 117.39 0.39 124.76 22.19 102.96"/><circle class="cls-7" cx="709" cy="121.72" r="3.28"/></g></g></svg>