<svg xmlns="http://www.w3.org/2000/svg" xmlns:xlink="http://www.w3.org/1999/xlink" viewBox="0 0 1080 1920"><defs><style>.cls-1,.cls-11,.cls-12,.cls-13,.cls-14,.cls-15,.cls-16,.cls-19,.cls-20,.cls-22,.cls-23,.cls-3,.cls-30,.cls-32,.cls-34,.cls-37,.cls-38,.cls-39,.cls-41,.cls-42,.cls-43,.cls-44,.cls-45,.cls-46,.cls-48,.cls-5,.cls-8,.cls-9{fill:none;}.cls-2{clip-path:url(#clip-path);}.cls-15,.cls-3,.cls-30,.cls-42{stroke:#f6a915;}.cls-11,.cls-12,.cls-13,.cls-14,.cls-15,.cls-16,.cls-19,.cls-20,.cls-22,.cls-23,.cls-3,.cls-30,.cls-32,.cls-34,.cls-37,.cls-38,.cls-39,.cls-41,.cls-42,.cls-43,.cls-44,.cls-45,.cls-46,.cls-48,.cls-5,.cls-8,.cls-9{stroke-miterlimit:10;}.cls-3{stroke-width:0.88px;}.cls-4{fill:#f6a915;}.cls-13,.cls-14,.cls-16,.cls-37,.cls-38,.cls-39,.cls-5,.cls-9{stroke:#cdd0c4;}.cls-5{stroke-width:0.49px;}.cls-6{fill:#4b53e4;}.cls-7{fill:#f68;}.cls-12,.cls-20,.cls-23,.cls-34,.cls-41,.cls-45,.cls-48,.cls-8{stroke:#fff;}.cls-10{fill:#cdd0c4;}.cls-11{stroke:#221660;}.cls-12,.cls-20{stroke-width:4.67px;}.cls-12,.cls-47{opacity:0.14;}.cls-13{stroke-dasharray:4;}.cls-14{stroke-dasharray:4.03 4.03;}.cls-15{stroke-width:1.31px;}.cls-16{stroke-width:0.72px;}.cls-17{fill:#eeeeed;}.cls-18{fill:#30b47a;}.cls-19{stroke:#0c8563;stroke-width:2px;}.cls-21{fill:#ff5940;}.cls-22{stroke:#d15036;stroke-width:1.76px;}.cls-23{stroke-width:3.52px;}.cls-24{fill:#221660;}.cls-25{fill:#f68e15;}.cls-26{fill:#fe9da7;}.cls-27{fill:#fcde98;}.cls-28{fill:#3a4b73;}.cls-29{fill:#f65015;}.cls-30{stroke-width:0.83px;}.cls-31,.cls-33{fill:#fff;}.cls-31{opacity:0.5;}.cls-32{stroke:#f68;}.cls-34{stroke-width:0.8px;}.cls-35{fill:#fff9e1;}.cls-36{fill:#d9c693;}.cls-37{stroke-width:1.82px;}.cls-38{stroke-width:1.36px;}.cls-39{stroke-width:1.46px;}.cls-40{opacity:0.15;}.cls-41{stroke-width:2.21px;}.cls-43{stroke:#4b53e4;}.cls-44{stroke:#f67215;stroke-width:1.4px;}.cls-45{stroke-width:1.86px;}.cls-46{stroke:#efddc9;stroke-width:0.91px;}.cls-48{stroke-width:3.52px;}</style><clipPath id="clip-path"><polygon class="cls-1" points="-227.44 -87.87 -174.99 1839.67 1129.98 1867.79 1077.51 -60.52 -227.44 -87.87"/></clipPath></defs><g id="OBJECTS"><g class="cls-2"><path class="cls-3" d="M797.4-91.14l3.1,114c.09,3.27,3.17,6,6.88,6.07l88.08,1.89c3.72.08,6.65-2.5,6.56-5.78l-3.1-114c-.09-3.28-3.17-6-6.88-6.07L804-96.92C800.25-97,797.31-94.41,797.4-91.14Z"/><path class="cls-4" d="M890.79-94.65c4.57.09,8.35,3.21,8.45,7L902.3,24.57c.1,3.75-3.52,6.71-8.08,6.61l-1.4,0L888.59-94.72Z"/><path class="cls-5" d="M871.29,21l-1.1-40.29"/><path class="cls-5" d="M863.1,20.79l-.66-24"/><path class="cls-5" d="M854.9,20.61C854.46,4.52,854-13,853.56-28.78"/><path class="cls-5" d="M847.13,20.44l-.68-24.81"/><path class="cls-5" d="M838.52,20.26l-1-35.24"/><path class="cls-6" d="M816.78-16.88l.9,33a4.29,4.29,0,0,0,4.37,3.85l2,0a3.82,3.82,0,0,0,4.17-3.68l-.9-32.94a4.28,4.28,0,0,0-4.37-3.86l-2,0A3.82,3.82,0,0,0,816.78-16.88Z"/><polygon class="cls-7" points="499.4 1834.88 474.02 1837.4 481.01 1819.12 499.4 1834.88"/><polyline class="cls-8" points="1072.97 1870.94 1070.64 1859.28 1060.31 1861.64 1057.97 1851.39 1046.62 1852.58 1044.96 1842.64 1034.98 1844.45"/><path class="cls-9" d="M764.59,97.21c2.42,7.13,7.84,11.87,14.25,10.11l7-1.93,57.62-16.1a7.61,7.61,0,0,0,4.08-2.87l8-10.84,2-2.77a2.84,2.84,0,0,0-1-4.14l-3.12-1.4-10.72-4.83a7.4,7.4,0,0,0-4.89-.45L780,77.39l-7.9,2a12.68,12.68,0,0,0-6.25,3.67c-2.55,2.82-3.33,6.48-1.61,12.82C764.31,96.36,764.44,96.8,764.59,97.21Z"/><path class="cls-10" d="M853.39,67.27l3.12,1.4a2.84,2.84,0,0,1,1,4.14l-2,2.77s-1.6-.44-2.1-3A16.67,16.67,0,0,1,853.39,67.27Z"/><path class="cls-9" d="M780,77.39l-8.27,2.14a11.86,11.86,0,0,0-6.23,4c-2.27,2.77-2.9,6.38-1.26,12.41.12.44.25.88.4,1.29,2.42,7.13,7.84,11.87,14.25,10.11l7-1.93s2.77-6.88,2-12.23C786,80.88,780,77.39,780,77.39Z"/><path class="cls-9" d="M775.05,103.63c1.9-2.68,2.87-14.7-5.5-19.88"/><polyline class="cls-9" points="842.4 86.24 840.05 81.59 841.05 75.27 838.01 69.84 839.5 65.06"/><path class="cls-9" d="M796.3,100s5.37-14.08-6.8-24.35"/><line class="cls-9" x1="799.51" y1="79.78" x2="838.01" y2="69.84"/><line class="cls-9" x1="797.06" y1="92.67" x2="835.56" y2="82.73"/><ellipse class="cls-11" cx="222.77" cy="65.62" rx="4.43" ry="5.43" transform="translate(130.96 278.94) rotate(-83.13)"/><line class="cls-8" x1="50.59" y1="1812.06" x2="24.83" y2="1804.16"/><line class="cls-8" x1="32.48" y1="1817.4" x2="41.69" y2="1798.5"/><polyline class="cls-12" points="824.02 1876.16 804.33 1859.94 859.96 1814.46"/><path class="cls-13" d="M774,349.89s84.37,299.55-297.92,351.72C242.89,733.43,95.16,561.27,83,455.82,38.27,66.5,550.89,87.93,550.89,87.93"/><path class="cls-9" d="M501.6,560.62l1,1.75"/><path class="cls-14" d="M504.62,565.84c70.12,116.9,270.3,143,270.3,143l53.63,3.68"/><line class="cls-9" x1="830.56" y1="712.71" x2="832.55" y2="712.85"/><path class="cls-15" d="M802,1618.23l79.35-6.22a4.47,4.47,0,0,0,4-4.63l-1.68-56.52a4,4,0,0,0-4.25-4L800,1553.09a4.49,4.49,0,0,0-4,4.64l1.69,56.52A4,4,0,0,0,802,1618.23Z"/><path class="cls-10" d="M805.19,1593.27l23-1.8a2.69,2.69,0,0,0,2.4-2.78l-.6-20.13a2.4,2.4,0,0,0-2.55-2.4l-23,1.8a2.7,2.7,0,0,0-2.4,2.79l.6,20.13A2.39,2.39,0,0,0,805.19,1593.27Z"/><path class="cls-4" d="M796.33,1558.52c-.09-2.93,2-5.48,4.57-5.68l78.15-6.12c2.61-.21,4.79,2,4.88,4.93l0,.89-87.6,7.39Z"/><polygon class="cls-6" points="804.04 1609.51 806.53 1624.85 801.32 1620.08 794.22 1621.24 804.04 1609.51"/><path class="cls-16" d="M847.3,1569.1l-11.21.87"/><path class="cls-16" d="M877.59,1566.72l-28.05,2.2"/><path class="cls-16" d="M858.66,1573.47l-22.42,1.76"/><path class="cls-16" d="M877.75,1572l-16.68,1.3"/><path class="cls-16" d="M841.31,1580.1l-4.91.39"/><path class="cls-16" d="M877.9,1577.23c-11.2.89-23.4,1.84-34.38,2.7"/><path class="cls-16" d="M858.67,1583.74l-22.12,1.73"/><path class="cls-16" d="M878.05,1582.22l-17.27,1.36"/><path class="cls-16" d="M851.32,1589.86,836.71,1591"/><path class="cls-16" d="M878.22,1587.75l-24.53,1.92"/><path class="cls-6" d="M853.07,1603.05l22.94-1.79a2.87,2.87,0,0,0,2.54-3l0-1.26a2.55,2.55,0,0,0-2.7-2.54l-22.94,1.8a2.85,2.85,0,0,0-2.54,3l0,1.26A2.52,2.52,0,0,0,853.07,1603.05Z"/><path class="cls-6" d="M519,1120.66c-10.93,6.24-49.46,17-52.36.47s108.27-49.25,93.92-66.27-198.82,44.94-220,8c-12.89-22.48,11.24-42.13,33-60.87,24.43-21,46.27-40,16.92-42.56-14.45-1.27-112.71,54.72-164.31-7.57-28.6-34.53,22.51-86.94,71.92-137,39.71-40.27,89.58-81.9,53.52-131.28C298.22,610.42-86,587.11-82.07,391.17l40.79-527.65,1245,130.34S1429,57.71,1378.63,279s-418,364.17-449.19,389.92c-46.58,38.49-31,78.57,31.77,65s112.58,22.94,51.23,77.64c-111.23,99.19-552.88,138.87-588.81,219.87-8.29,18.67,193.07-35.34,185.79,14.59-3.25,22.33-112.38,62.81-118.19,67.53-21.36,17.33,26.48,4.29,26.48,4.29Z"/><path class="cls-17" d="M969,1657.38l-222.66-14.82c-6.53-.43-12.52,5.19-13.37,12.57l-.71,6.15c-.86,7.37,3.74,13.7,10.28,14.14l222.65,14.82c6.54.43,12.52-5.19,13.38-12.57l.71-6.15C980.14,1664.15,975.54,1657.82,969,1657.38Z"/><ellipse class="cls-18" cx="113.43" cy="836.7" rx="53.43" ry="58.41" transform="translate(-441.81 200.58) rotate(-33.4)"/><ellipse class="cls-19" cx="101.71" cy="810.23" rx="64.45" ry="78.97" transform="translate(-429.17 189.76) rotate(-33.4)"/><polyline class="cls-20" points="136.68 799.74 137.03 825.25 66.37 812.21"/><ellipse class="cls-21" cx="325.03" cy="1620.78" rx="13.41" ry="14" transform="translate(-1324.69 1725.76) rotate(-82.3)"/><ellipse class="cls-22" cx="400.71" cy="1585.63" rx="15.39" ry="15.01" transform="translate(-1215.97 1832.91) rotate(-84.51)"/><ellipse class="cls-23" cx="326.78" cy="1624.21" rx="5.34" ry="7.13" transform="matrix(0.08, -1, 1, 0.08, -1319, 1814.63)"/><path class="cls-23" d="M320.74,1620.36l-6-4.55Z"/><path class="cls-24" d="M571.82,405.38a51.1,51.1,0,0,1,14.59-2.13.75.75,0,0,0,0-1.5,52.14,52.14,0,0,0-15,2.19.75.75,0,0,0,.4,1.44Z"/><path class="cls-6" d="M342.6,1297.34l-14.46,84.42s-47.17-39.37-53.21-43-35,32.14-35,32.14,40.35,35.85,62,57.06c16.86,16.54,64.22-5.65,64.22-5.65L380,1353.71Z"/><path class="cls-24" d="M239.92,1370.92s29-35.74,35-32.14c0,0-12.74-11.93-15.9-12.18-8.72-.7-50.73,50.29-48.61,50.89,4.37,1.23,25-11.75,25-11.75Z"/><path class="cls-6" d="M441.32,1320.36c-1.05,16.64-14.33,115.54-29,135.29s-77.15,16.34-114.8,17.1l-3-49.85,68.26-7.47,12-56.06s-38.32-38.34-32.11-62Z"/><polygon class="cls-24" points="440.8 1344.7 347.53 1332.1 338.49 1317.73 440.8 1344.7"/><path class="cls-4" d="M367.47,1186.78c-6.09-.53-49.91,27.1-49.91,27.1l20.89,35,22.68-14.79Z"/><path class="cls-25" d="M338.45,1248.93l18.86-12.51,5-34.67a45.17,45.17,0,0,0-10.21,12c-.23.39-9.31,13-9.52,13.36-3.5,6.68-12.78,6.95-12.78,6.95Z"/><path class="cls-26" d="M536.06,1150.92c4.22-7,5-17.81,2.46-23.26s-8.24-10.27-11.87-10.12-2.15,4.13-.06,6.63,4.72,8.73,4.72,8.73Z"/><path class="cls-7" d="M526.59,1124.17c2.08,2.51,4.72,8.73,4.72,8.73l4.75,18a53.36,53.36,0,0,0-.06-18.43C534.11,1123.45,526.59,1124.17,526.59,1124.17Z"/><path class="cls-26" d="M430.34,1126.77c9,7.52,12,38.23,12.07,40.2.08,4.39,1.84,16-21.71,15.43l-.8,10.54s-28.4-1.13-31.77-4.1c0,0,1.19-9.69,1.51-23,.3-12.48-.57-28.48,6.86-33.9C411.87,1120.68,422.15,1119.94,430.34,1126.77Z"/><path class="cls-24" d="M443.81,1134.41s0,12.46-22.87,10.19c0,0-.53,6.25-5.87,8.65l1.81,6.78-5.34-.09s5.83,18.76,3.13,21.57-22.21,1.74-25.76-.81c-1.33-1-4.47-15.06-6.69-21.63-3.69-10.94-8.28-21.29,4.41-20,0,0,.18-9.48,2.92-13s8.26-1,8.26-1-.67-10.77,9.57-13.27,15,2.81,15,2.81,9.78-16.92,26.94-6.41c13.06,8,6.81,24.43.22,25.53Z"/><path class="cls-26" d="M517.13,1145c4.36-.85,6.51-6.42,6.81-8.61s-2-3.67-10-8.15c-5.91-3.31-2.83-7.18,2.48-6.73,0,0,11.24.86,16,6.87,6.4,8,3.43,25.55,3.43,25.55s3,28.82-5.59,57.52c-6.79,22.73-20.48,24.79-27.79,27.38s-33.71,1.33-33.71,1.33l8.56-39.45,17.81.43c8-15.89,11.14-46.83,11.14-46.83Z"/><path class="cls-7" d="M513.93,1128.19c8,4.48,10.32,6,10,8.15s-2.45,7.76-6.81,8.61l7.63-.29,3.67,3.46s1.16-9.16-1.95-13.65S513.93,1128.19,513.93,1128.19Z"/><path class="cls-7" d="M477.35,1200.66l-8.56,39.45s9.6.46,18.82.26c2,0-5.33-.71-6.82-6.5C477.78,1222.1,477.35,1200.66,477.35,1200.66Z"/><path class="cls-26" d="M317.86,1214.4c.39,0-15.8,11.64-21.64,11.16-8.15-.68-27.73-20.33-27.73-20.33s-1.67-14.28-4.77-14.44-2.57,7.42-2.57,7.42-13.07-19.74-15.55-18.45-1.63,6,.93,12.17c0,0,.17,2.45-1.4.34s-6.18-9.45-9.16-9.33-1,9.36,2.91,14.64c0,0-9.26-8.07-10.58-7.23s-.51,7.76,5.64,13.54c0,0-6.55-3.88-7.63-2.45s3.64,9.9,16.06,18.41c0,0,19.17,36.89,52.35,42.15,11.55,1.83,23.37-1.85,32.88-7.43a112.57,112.57,0,0,0,10.36-6.81Z"/><path class="cls-26" d="M414.4,1162.48c-5.07-5.87-7.32-6.16-8.87-1.1s5.45,11.34,9.76,9.32S414.4,1162.48,414.4,1162.48Z"/><path class="cls-24" d="M294.47,1422.9s-17.52-.11-20.18,2.61-2.56,73.54,2.46,81.42,13.92-34.27,13.92-34.27l6.83.09Z"/><path class="cls-4" d="M477.1,1196.54c1.72,5.74-5.19,43.44-8.31,43.57-2.09.09-18-1.64-18-1.64.24,0-.42,63.7-7.12,106.54,0,0-83.44-16.69-116.12-30.5,0,0,33.84-120.42,39.92-127.73l75.07,7.18Z"/><path class="cls-24" d="M357.64,1342.84a93,93,0,0,0,16.22,17.46l-.21-.78-4,18.83-6.3,30-1.44,6.86.78-.59-22,2.29-34.78,3.61-8,.83c-1,.11-1,1.72,0,1.61l22-2.28,34.78-3.62,8-.83a.82.82,0,0,0,.77-.59l4-18.83,6.3-30,1.44-6.86a.79.79,0,0,0-.21-.78A91.31,91.31,0,0,1,359,1342c-.59-.84-2,0-1.39.81Z"/><path class="cls-24" d="M368.1,1389.84l6.32-30.11a90.12,90.12,0,0,1-9.42-9C362.62,1348.09,368.1,1389.84,368.1,1389.84Z"/><path class="cls-7" d="M327.6,1254.57a112.57,112.57,0,0,0,10.36-6.81l-20.1-33.36s9.56,24.31,9.41,30.75A93.83,93.83,0,0,0,327.6,1254.57Z"/><path class="cls-4" d="M530.51,1150.35l-2.6-3.36-2.92-3.93-11.06-14.87a14.18,14.18,0,0,0-6.35-3.88,17,17,0,0,0-2-.49,10.9,10.9,0,0,0-.19,2A16.3,16.3,0,0,0,507,1133c1.28,2.7,5.91,9.83,9.72,15.54,1,1.53,2,3,2.79,4.18,1.56,2.32,2.62,3.86,2.62,3.86s3.58.36,5.93-1S530.51,1150.35,530.51,1150.35Z"/><path class="cls-27" d="M507,1133a16.3,16.3,0,0,1-1.54-7.13,10.9,10.9,0,0,1,.19-2,17,17,0,0,1,2,.49,14.18,14.18,0,0,1,6.35,3.88l-3-.68-.2,1.63-2.29-.43-.15,2.91-1.55-.79Z"/><path d="M505.43,1125.82a10.9,10.9,0,0,1,.19-2,17,17,0,0,1,2,.49Z"/><path class="cls-28" d="M519.48,1152.67c-.82-1.22-1.78-2.65-2.79-4.18a9.28,9.28,0,0,1,2.85-3.56,9.65,9.65,0,0,1,5.45-1.87l2.92,3.93Z"/><path class="cls-29" d="M519.48,1152.67c1.56,2.32,2.62,3.86,2.62,3.86s3.58.36,5.93-1,2.48-5.15,2.48-5.15l-2.6-3.36s-2.3-1-5.35,1S519.48,1152.67,519.48,1152.67Z"/><path class="cls-26" d="M506.3,1154.26c-4.65-5.66-2.55-11.84-1.55-18.21s3.16-6.58,5-6.06c1.61.46,2.67,11.84,5.72,14.46a15.13,15.13,0,0,1,4,4.9c1.75,3.73,3.42,8.78.84,10.66-.87.63-5.08-9.48-6.06-9A44.66,44.66,0,0,1,506.3,1154.26Z"/><path class="cls-30" d="M700.87,1322.47l.66,24.3c.64,23.71,24.58,43.43,53.46,44.06h0c28.89.62,51.78-18.1,51.13-41.81l-.13-4.73c-.64-23.71-24.58-43.44-53.46-44.06l-49.21-1.06c-1.27,0-2.3.63-2.3,1.5C701,1305.86,700.86,1322.36,700.87,1322.47Z"/><polygon class="cls-7" points="158.9 481.53 139.53 483.46 144.87 469.5 158.9 481.53"/><polygon class="cls-7" points="619.95 288.12 594.57 290.64 601.55 272.36 619.95 288.12"/><polygon class="cls-7" points="323.75 945.51 298.37 948.04 305.35 929.76 323.75 945.51"/><ellipse class="cls-4" cx="736.64" cy="1032.47" rx="6.56" ry="8.04" transform="translate(-376.56 1640.26) rotate(-83.13)"/><ellipse class="cls-31" cx="810.45" cy="1166.69" rx="4.09" ry="5.01" transform="translate(-444.84 1831.7) rotate(-83.13)"/><ellipse class="cls-4" cx="92.82" cy="742.14" rx="6.16" ry="7.55" transform="translate(-655.1 745.48) rotate(-83.13)"/><ellipse class="cls-4" cx="77.26" cy="1509.14" rx="6.16" ry="7.55" transform="translate(-1430.28 1405.25) rotate(-83.13)"/><polyline class="cls-32" points="1055.7 521.53 1051.86 503.12 1035.58 506.95 1031.74 490.77 1013.82 492.75 1011.08 477.06 995.33 480.01"/><polygon class="cls-6" points="328.94 750.01 317.22 767.08 338.61 777.54 350.32 760.47 328.94 750.01"/><polygon class="cls-33" points="714.86 828.78 707.92 838.89 720.59 845.09 727.53 834.98 714.86 828.78"/><polyline class="cls-34" points="554.6 856.45 549.07 847.99 542.15 852.07 537.07 844.69 529.01 848.1 524.54 840.81 517.7 844.4"/><path class="cls-35" d="M131.34,1382.56l47.88-69.75a38.07,38.07,0,0,0-18.09-17.76c-13-5.85-33.76-5.63-38.91-10.06-10.32-8.86-8.86-27.46-45-32L23.25,1318.3s13.13,5.7,16.1,10c4.76,6.88,8,18.91,20.52,26.54,10,6.12,33.07,5.33,48.3,10.69A49,49,0,0,1,131.34,1382.56Z"/><path class="cls-36" d="M127.37,1360.9a62.83,62.83,0,0,1,5-7.15c2.58-3.4,5.24-6.73,7.92-10,5.79-7.18,11.7-14.28,17.38-21.56a84.92,84.92,0,0,0,5.89-8.1,1.19,1.19,0,0,0-2.06-1.2,74.78,74.78,0,0,1-5.06,7.05c-2.64,3.39-5.34,6.73-8,10.07-5.82,7.18-11.73,14.29-17.35,21.63a67.1,67.1,0,0,0-5.69,8.11c-.74,1.34,1.31,2.53,2.05,1.2Z"/><path class="cls-36" d="M109.2,1354.29a62.83,62.83,0,0,1,5-7.15c2.58-3.4,5.25-6.73,7.92-10.05,5.79-7.18,11.71-14.28,17.38-21.56a84.92,84.92,0,0,0,5.89-8.1,1.19,1.19,0,0,0-2-1.2,74.88,74.88,0,0,1-5.07,7c-2.63,3.39-5.33,6.73-8,10.07-5.82,7.18-11.72,14.29-17.35,21.63a69.42,69.42,0,0,0-5.69,8.11c-.74,1.33,1.31,2.53,2,1.2Z"/><path class="cls-36" d="M91.27,1349.17a62.83,62.83,0,0,1,5-7.15c2.58-3.4,5.24-6.72,7.92-10,5.79-7.19,11.7-14.28,17.38-21.56a84.82,84.82,0,0,0,5.88-8.1,1.19,1.19,0,0,0-2-1.2,73,73,0,0,1-5.07,7c-2.63,3.4-5.33,6.74-8,10.07-5.82,7.18-11.73,14.3-17.35,21.63a68.71,68.71,0,0,0-5.69,8.11c-.74,1.34,1.31,2.54,2,1.2Z"/><path class="cls-36" d="M72.09,1343.46a61.57,61.57,0,0,1,5-7.15c2.57-3.4,5.24-6.73,7.91-10,5.8-7.18,11.71-14.28,17.38-21.56a82,82,0,0,0,5.89-8.1,1.19,1.19,0,0,0-2-1.2,73.11,73.11,0,0,1-5.07,7c-2.63,3.4-5.33,6.74-8,10.07-5.81,7.18-11.72,14.29-17.34,21.63a67.89,67.89,0,0,0-5.69,8.11,1.19,1.19,0,0,0,2,1.2Z"/><path class="cls-36" d="M63.53,1329.94a61.57,61.57,0,0,1,5-7.15c2.57-3.4,5.24-6.73,7.92-10,5.79-7.18,11.7-14.27,17.38-21.55a85,85,0,0,0,5.88-8.11c.8-1.31-1.26-2.5-2-1.19a74.24,74.24,0,0,1-5.07,7c-2.63,3.4-5.33,6.74-8,10.07-5.82,7.18-11.73,14.29-17.35,21.63a67.89,67.89,0,0,0-5.69,8.11c-.74,1.34,1.31,2.54,2.05,1.2Z"/><path class="cls-36" d="M52.26,1316.37a61.49,61.49,0,0,1,5-7.15c2.58-3.4,5.25-6.73,7.92-10,5.8-7.18,11.71-14.28,17.38-21.56a83.21,83.21,0,0,0,5.89-8.1,1.19,1.19,0,0,0-2.05-1.2,73.11,73.11,0,0,1-5.07,7c-2.63,3.4-5.33,6.73-8,10.07-5.82,7.18-11.72,14.29-17.34,21.63a67.1,67.1,0,0,0-5.69,8.11,1.19,1.19,0,0,0,2,1.2Z"/><path class="cls-32" d="M286.5,91.14c-9.06-7.61-19.32-10.58-24.87-4.84l-6.07,6.28-67.22,67.6a7.65,7.65,0,0,0-2,5.84l.81,18,.21,4.6a5.4,5.4,0,0,0,4.86,4.62l4.72,0,16.23.15a8,8,0,0,0,5.83-2.13l68.1-66.82,6.95-6.92a12.3,12.3,0,0,0,3.68-8c.32-5-2.09-10-9.66-17C287.56,92.05,287,91.58,286.5,91.14Z"/><path class="cls-7" d="M197,193.29l-4.72,0a5.4,5.4,0,0,1-4.86-4.62l-.21-4.6s2.17-.34,5,2.6A32.46,32.46,0,0,1,197,193.29Z"/><path class="cls-32" d="M287.12,124.49l7.28-7.25a11.81,11.81,0,0,0,3.38-8.42c.05-4.73-2.48-9.61-9.69-16.28-.53-.49-1.06-1-1.59-1.4-9.06-7.61-19.32-10.58-24.87-4.84l-6.07,6.28s3.07,10.16,8.73,16.44C277.28,123.42,287.12,124.49,287.12,124.49Z"/><path class="cls-32" d="M269.13,88.84c.29,4.41,9.94,20,23.87,21.93"/><polyline class="cls-32" points="192.24 163.42 199 167.96 203.53 176.45 211.76 181.58 214.38 188.41"/><path class="cls-32" d="M248.73,105.09s6.6,20.62,29.3,26.81"/><line class="cls-32" x1="263.23" y1="132.26" x2="211.76" y2="181.58"/><line class="cls-32" x1="254.45" y1="114.73" x2="202.98" y2="164.05"/><path class="cls-37" d="M119.9,933.54l3.31,122-14,18.24,14.51,1.53c.13,4.74,4.91,8.67,10.68,8.8l38.71.83c5.77.13,10.34-3.61,10.21-8.34l-3.86-141.78c-.13-4.74-4.91-8.67-10.67-8.8l-38.72-.83C124.34,925.07,119.77,928.81,119.9,933.54Z"/><line class="cls-37" x1="160.49" y1="1063.58" x2="157.26" y2="944.65"/><line class="cls-37" x1="144.56" y1="1063.24" x2="141.32" y2="944.31"/><path class="cls-38" d="M815.34,728.83l-.83-30.47-8.29-10.43,8-.51c-.07-2.62,2.46-4.68,5.65-4.62l21.41.47c3.19.06,5.84,2.24,5.91,4.86l1.13,41.41c.07,2.62-2.46,4.69-5.65,4.62l-21.42-.46C818.05,733.63,815.41,731.45,815.34,728.83Z"/><line class="cls-38" x1="836.69" y1="738.97" x2="830.44" y2="677.53"/><line class="cls-38" x1="826.1" y1="694.61" x2="826.88" y2="723.38"/><path class="cls-39" d="M926.68,1008.75l80.81-5.51c5-.34,8.89-5.19,8.78-10.82l-1.13-58.57c-.11-5.63-4.22-9.93-9.18-9.59l-80.81,5.51c-5,.34-8.89,5.18-8.78,10.82l1.13,58.56C917.61,1004.79,921.72,1009.09,926.68,1008.75Z"/><path class="cls-18" d="M1003.32,989.08s-20.68-36-23.46-35.84S953.67,993,953.67,993Z"/><path class="cls-18" d="M965,966.71l-15.06,24.87-18.68,1.28-.26-13.6s17.11-21.32,21.75-25.32C954.23,955.73,965,967.78,965,966.71Z"/><ellipse class="cls-4" cx="992.18" cy="944.71" rx="6.38" ry="5.21" transform="translate(-27.95 1859.17) rotate(-85.47)"/><g class="cls-40"><path class="cls-41" d="M910.85,1694l2.44,89.63c.15,5.5,5.33,10.07,11.57,10.2l64.82,1.4c6.24.14,11.18-4.21,11-9.72l-2.44-89.63c-.15-5.5-5.33-10.07-11.57-10.2l-64.82-1.4C915.64,1684.15,910.7,1688.5,910.85,1694Z"/><path class="cls-41" d="M929.05,1777.36a1.61,1.61,0,0,0,2.38,1.09c8.61-4.54,38.48-20.48,38.4-23.12-.08-3.09-42.82-30.76-42.82-30.76Z"/><path class="cls-41" d="M953.88,1741.94,927,1724.16l-.07-23a1.33,1.33,0,0,1,1.47-1.2l14.08.17a1.76,1.76,0,0,1,1.21.48c3,3,19.32,19.6,25.22,26.29a2,2,0,0,1-.24,3.07C964.29,1733.47,953.88,1741.94,953.88,1741.94Z"/><ellipse class="cls-41" cx="978.71" cy="1769.34" rx="5.77" ry="7.07" transform="translate(-895.04 2529.29) rotate(-83.13)"/></g><ellipse class="cls-11" cx="221.38" cy="439.58" rx="4.43" ry="5.43" transform="translate(-241.53 606.77) rotate(-83.13)"/><ellipse class="cls-11" cx="770.11" cy="717.32" rx="4.43" ry="5.43" transform="translate(-34.21 1396.05) rotate(-83.13)"/><line class="cls-8" x1="981.84" y1="1179.64" x2="956.08" y2="1171.75"/><line class="cls-8" x1="963.73" y1="1184.99" x2="972.94" y2="1166.09"/><line class="cls-8" x1="162.12" y1="1009.64" x2="136.36" y2="1001.74"/><line class="cls-8" x1="144.01" y1="1014.98" x2="153.22" y2="996.08"/><line class="cls-42" x1="781.39" y1="219.64" x2="755.63" y2="211.75"/><line class="cls-42" x1="763.28" y1="224.99" x2="772.5" y2="206.09"/><line class="cls-42" x1="138.03" y1="446.76" x2="109" y2="438.86"/><line class="cls-42" x1="119.41" y1="450.72" x2="128.62" y2="431.83"/><line class="cls-43" x1="80.31" y1="1113.71" x2="54.55" y2="1105.82"/><line class="cls-43" x1="62.2" y1="1119.06" x2="71.41" y2="1100.16"/><ellipse class="cls-4" cx="911.67" cy="1143.81" rx="60.69" ry="49.53" transform="translate(-333.01 1912.05) rotate(-83.13)"/><ellipse class="cls-44" cx="908.23" cy="1136.07" rx="60.69" ry="49.53" transform="translate(-328.37 1901.82) rotate(-83.13)"/><path class="cls-45" d="M886.63,1134.59c-.24,11,3.57,20.16,10.92,24.85,3.31,2.11,6,18.85,6,18.85l14.55-.75s2.78-17.94,5.37-20.17c6.29-5.4,10.51-14.22,10.73-24.07.34-16-10-28.69-23.17-28.33S887,1118.59,886.63,1134.59Z"/><polyline class="cls-45" points="916.51 1157.41 920.86 1131.09 911.41 1137.72 902.53 1131.59 905.46 1157.71"/><line class="cls-45" x1="923.48" y1="1157.37" x2="897.58" y2="1158.07"/><line class="cls-45" x1="918.91" y1="1167.25" x2="901.76" y2="1167.72"/><path class="cls-24" d="M677,499.75a.38.38,0,0,0,0-.75.38.38,0,0,0,0,.75Z"/><path class="cls-46" d="M974.43,152c-17.22-1.2-32,8.89-40.41,29-3.77,9-30.33,15.68-30.33,15.68l-.89,40.21s27.66,8.54,30.78,15.81c7.56,17.62,20.75,29.72,36.13,30.78,25,1.73,46.28-26.29,47.58-62.58S999.41,153.71,974.43,152Z"/><polyline class="cls-46" points="934.63 239.16 976.04 245.24 967.01 218.84 977.86 194.63 934.39 194.25"/><line class="cls-46" x1="931.87" y1="248.79" x2="933.03" y2="183.65"/><line class="cls-46" x1="918.78" y1="239.54" x2="920.48" y2="192.13"/><g class="cls-47"><ellipse class="cls-48" cx="91.72" cy="1248.13" rx="20.93" ry="25.65" transform="translate(-1158.42 1189.83) rotate(-83.13)"/><path class="cls-48" d="M70,1233l-21.69-17.87Z"/></g><ellipse class="cls-10" cx="770.95" cy="341.87" rx="7.01" ry="8.59" transform="translate(339.28 1066.37) rotate(-83.13)"/></g></g></svg>